<?xml version="1.0" encoding="utf-8" ?><svg xmlns="http://www.w3.org/2000/svg" xmlns:xlink="http://www.w3.org/1999/xlink" width="127" height="134" viewBox="0 0 127 134"><defs><linearGradient id="gradient_0" gradientUnits="userSpaceOnUse" x1="64.213257" y1="133.7742" x2="62.536743" y2="-0.024198283"><stop offset="0" stop-color="#60250E"/><stop offset="1" stop-color="#8D4223"/></linearGradient></defs><path fill="url(#gradient_0)" d="M0 0L127 0L127 134L0 134L0 0Z"/><path fill="#D0995F" d="M33.9991 95.2436C38.4126 95.2111 43.5171 94.9352 47.8277 95.556C52.7503 96.265 55.6358 100.98 54.5745 105.734C53.9681 108.45 52.0964 109.898 49.8562 111.321C51.3758 113.195 53.4434 116.285 54.8809 118.33L54.7653 118.719L53.6881 118.898L49.169 118.935C48.1502 117.209 45.7987 114.078 44.54 112.307C42.8772 112.162 41.1786 112.235 39.5082 112.27C39.4283 114.393 39.5248 116.621 39.5828 118.753L34.0171 118.772C33.9323 110.929 33.9263 103.086 33.9991 95.2436Z"/><path fill="#672D09" d="M39.7593 99.9589C43.9109 99.9019 52.8943 99.8073 47.9253 106.76C45.7672 108.148 42.1241 107.791 39.5434 107.724C39.5726 105.135 39.6446 102.546 39.7593 99.9589Z"/><defs><linearGradient id="gradient_1" gradientUnits="userSpaceOnUse" x1="62.837574" y1="72.155968" x2="75.089142" y2="29.204117"><stop offset="0" stop-color="#D19764"/><stop offset="1" stop-color="#FAC982"/></linearGradient></defs><path fill="url(#gradient_1)" d="M62.6479 27.8125C64.6911 27.717 66.8378 27.5827 68.8795 27.7002C82.8279 28.5027 94.7086 39.4572 97.5591 52.9907C98.3475 56.7342 98.3559 59.659 98.1602 63.4527C97.2369 64.8526 95.9825 65.8104 94.7062 66.8691C98.934 51.7399 87.5288 35.5059 72.305 32.7737C68.9539 32.358 64.4244 32.2735 61.1146 32.9439C45.2197 36.1636 36.0833 50.5583 38.8945 66.3052C37.6314 65.4796 37.0356 64.9231 35.9415 63.9199C33.4467 48.0413 43.1722 32.6812 58.7992 28.6115C60.0719 28.28 61.354 28.0428 62.6479 27.8125Z"/><path fill="#672D09" d="M66.4117 36.118C68.0829 38.2308 71.4958 41.8073 71.0869 44.5442L71.5222 44.2908L71.9078 43.7951C73.6492 44.7044 75.9845 48.7025 76.6195 50.7129C77.6576 54.007 77.3579 57.5772 75.7851 60.652C74.7801 62.5851 72.0503 65.9669 69.5835 65.172C67.1702 66.4121 65.4694 65.7488 62.8777 65.1907C61.8845 65.8237 59.6455 63.4754 59.0948 62.8167C55.511 59.0043 55.3815 52.5523 59.3855 48.9232C64.8949 43.9297 65.7188 43.7341 66.4117 36.118Z"/><path fill="#DFAF6B" d="M66.4117 36.118C68.0829 38.2308 71.4958 41.8073 71.0869 44.5442C71.0259 47.6893 70.796 50.625 68.1931 52.7359C62.8153 57.0972 61.2562 57.7388 62.8777 65.1907C61.8845 65.8237 59.6455 63.4754 59.0948 62.8167C55.511 59.0043 55.3815 52.5523 59.3855 48.9232C64.8949 43.9297 65.7188 43.7341 66.4117 36.118Z"/><path fill="#DFAF6B" d="M71.5222 44.2908L71.9078 43.7951C73.6492 44.7044 75.9845 48.7025 76.6195 50.7129C77.6576 54.007 77.3579 57.5772 75.7851 60.652C74.7801 62.5851 72.0503 65.9669 69.5835 65.172C71.301 63.3313 72.67 57.2774 71.6343 54.7343C71.0187 54.3705 70.7662 53.6844 70.3584 52.9918C72.0793 49.6604 72.3006 48.0476 71.5222 44.2908Z"/><path fill="#DFAF6B" d="M70.3584 52.9918C70.7662 53.6844 71.0187 54.3705 71.6343 54.7343C70.5098 56.059 70.6235 58.1914 67.988 59.2266L67.6593 59.0339C67.4668 57.1506 69.2269 54.448 70.3584 52.9918Z"/><path fill="#D0995F" d="M59.3943 95.2225L59.0215 95.0447C59.1288 94.9525 59.2695 94.8315 59.4437 94.6819C71.5163 94.5707 83.6063 94.7801 95.6824 94.767C95.8074 94.7669 96.0309 94.8526 96.1023 94.8818L94.7291 95.2339C89.8132 95.289 84.897 95.2974 79.981 95.2591C79.9496 96.5336 79.8288 98.7821 79.8969 99.9821C79.2698 100.479 77.8342 100.346 77.0377 100.287L76.7787 99.9776C73.6266 99.5963 68.1177 99.7284 64.856 99.7863C64.9932 101.116 64.9847 103.34 65.0206 104.737C68.1511 104.865 72.226 104.717 75.4065 104.679C75.4219 106.056 75.5235 107.628 75.5804 109.02L65.0573 109.046C65.0394 110.71 65.0373 112.373 65.0512 114.036C69.016 114.108 73.2269 114.018 77.2099 113.999L77.3005 118.813C71.4348 118.706 65.3821 118.759 59.5021 118.743L59.5381 102.95C59.5437 101.247 59.6599 96.6776 59.3943 95.2225Z"/><path fill="#672D09" d="M59.3943 95.2225L59.0215 95.0447C59.1288 94.9525 59.2695 94.8315 59.4437 94.6819C71.5163 94.5707 83.6063 94.7801 95.6824 94.767C95.8074 94.7669 96.0309 94.8526 96.1023 94.8818L94.7291 95.2339C89.8132 95.289 84.897 95.2974 79.981 95.2591C79.9496 96.5336 79.8288 98.7821 79.8969 99.9821C79.2698 100.479 77.8342 100.346 77.0377 100.287L76.7787 99.9776C77.2062 99.1612 77.0112 96.295 76.9864 95.2552C71.2211 95.1129 65.239 95.3315 59.3943 95.2225Z"/><path fill="#DFAF6B" d="M89.5559 72.3985C99.914 67.0704 110.389 67.2725 121.764 67.9386C120.29 70.6585 118.751 73.3428 117.15 75.9894C111.731 74.1872 100.293 74.9128 94.6837 75.8291C94.4015 76.0216 90.7074 76.8253 90.1338 76.9503C83.3369 78.4306 78.5619 81.8613 73.0226 85.7691C75.8978 80.5415 84.2008 74.7787 89.5559 72.3985Z"/><path fill="#D0995F" d="M73.0226 85.7691C75.8978 80.5415 84.2008 74.7787 89.5559 72.3985C87.9413 74.3834 79.0355 77.8659 79.391 80.4733C80.8707 80.2606 92.4986 74.3482 94.6837 75.8291C94.4015 76.0216 90.7074 76.8253 90.1338 76.9503C83.3369 78.4306 78.5619 81.8613 73.0226 85.7691Z"/><path fill="#D0995F" d="M10.5765 67.5168C16.9465 67.7474 23.6748 67.213 30.0072 68.1117C40.1795 69.5552 49.9899 74.8032 57.2044 82.0218C56.7862 82.2566 56.163 82.5308 55.9538 82.9329C43.2618 74.3286 29.5884 74.4206 14.8903 75.022C13.8402 72.7215 11.9209 69.7412 10.5765 67.5168Z"/><path fill="#DFAF6B" d="M55.7127 66.7219L69.7245 66.7545C71.8397 66.7591 76.099 66.8624 78.0632 66.5622C77.494 67.6725 76.7488 69.4615 75.6281 69.9933C75.3038 70.4488 74.6062 71.5219 74.1887 71.7786C70.8867 76.7241 69.3935 89.4044 66.9431 92.2913L66.5007 92.282C64.5419 90.4218 62.3597 76.1415 60.2295 73.1723C59.9988 72.8507 59.5402 71.9616 59.3055 71.5734C59.0961 70.654 58.9538 70.4845 58.1987 70.0211C56.4441 69.5043 56.3943 68.3353 55.7127 66.7219Z"/><path fill="#DFAF6B" d="M55.7127 66.7219L69.7245 66.7545C71.8397 66.7591 76.099 66.8624 78.0632 66.5622C77.494 67.6725 76.7488 69.4615 75.6281 69.9933C75.3038 70.4488 74.6062 71.5219 74.1887 71.7786C73.2643 71.3494 61.1922 71.5212 59.3055 71.5734C59.0961 70.654 58.9538 70.4845 58.1987 70.0211C56.4441 69.5043 56.3943 68.3353 55.7127 66.7219Z"/><path fill="#A9743D" d="M58.1987 70.0211C61.5618 69.801 73.1049 68.9975 75.6281 69.9933C75.3038 70.4488 74.6062 71.5219 74.1887 71.7786C73.2643 71.3494 61.1922 71.5212 59.3055 71.5734C59.0961 70.654 58.9538 70.4845 58.1987 70.0211Z"/><path fill="#DFAF6B" d="M94.7291 95.2339L100.281 95.2696C100.298 96.7373 100.347 98.3191 100.295 99.7771C97.8828 99.7862 95.3714 99.8286 92.9673 99.8027L92.9668 118.724L87.4413 118.751C87.3326 112.817 87.2198 105.761 87.4715 99.86C86.0789 99.8692 81.0377 99.8116 79.8969 99.9821C79.8288 98.7821 79.9496 96.5336 79.981 95.2591C84.897 95.2974 89.8132 95.289 94.7291 95.2339Z"/><path fill="#DFAF6B" d="M81.5594 83.0637C91.5439 78.0354 103.881 77.7261 114.809 78.2655C113.486 80.5001 112.197 82.7545 110.942 85.0279C102.647 82.7408 90.0148 83.5198 81.7398 85.6281C81.3808 85.9083 73.0011 89.6595 72.0507 90.0842C74.5404 86.8363 77.8722 84.7801 81.5594 83.0637Z"/><path fill="#C3835C" d="M72.0507 90.0842C74.5404 86.8363 77.8722 84.7801 81.5594 83.0637C80.3381 84.8833 78.1449 84.7351 77.7314 86.5333C78.6795 86.2676 80.7956 85.4597 81.5307 85.4711L81.7398 85.6281C81.3808 85.9083 73.0011 89.6595 72.0507 90.0842Z"/><path fill="#D0995F" d="M18.6494 78.292C33.1574 77.8311 44.5686 78.0812 57.3077 86.4019C56.8374 86.8224 56.3636 87.3511 55.7576 87.4427C46.4566 82.6855 32.8732 83.7 22.9062 85.3366L18.6494 78.292Z"/><path fill="#D0995F" d="M98.0631 28.9405C100.847 26.197 105.948 21.4903 109.263 19.4026C107.619 21.5438 101.069 28.8989 99.1354 30.5362C97.1079 33.0478 95.3091 35.148 93.3214 37.7468C92.6044 36.9654 91.2192 35.8051 90.389 35.0659C92.1201 33.4196 95.9004 30.778 98.0631 28.9405Z"/><path fill="#C3835C" d="M98.0631 28.9405C100.847 26.197 105.948 21.4903 109.263 19.4026C107.619 21.5438 101.069 28.8989 99.1354 30.5362C99.2072 29.3743 100.419 28.7148 101.225 27.4614C100.022 26.9439 99.8107 28.3376 98.135 28.9163L98.0631 28.9405Z"/><defs><linearGradient id="gradient_2" gradientUnits="userSpaceOnUse" x1="61.527428" y1="6.1165943" x2="71.096161" y2="22.715122"><stop offset="0" stop-color="#E09772"/><stop offset="1" stop-color="#F8C28B"/></linearGradient></defs><path fill="url(#gradient_2)" d="M66.6269 2.68182C66.8426 2.876 67.0329 3.19031 67.0598 3.60922C67.513 10.6619 68.2363 17.6838 68.7499 24.7247C68.6257 24.8978 68.5253 25.0377 68.4488 25.1444L67.5622 25.2037L64.5094 25.0585C66.3374 17.9996 65.7727 9.96721 66.6269 2.68182Z"/><path fill="#D0995F" d="M31.8234 25.2818C35.9486 29.1734 38.7373 31.0001 43.2823 34.226C42.3679 35.5619 41.7543 36.2763 40.4456 37.2511C37.414 33.4487 34.2016 29.7941 30.8195 26.2998L31.8234 25.2818Z"/><path fill="#D0995F" d="M84.8161 15.9055L85.4338 15.7709C85.8773 16.095 85.9647 16.4009 86.1911 16.9069C84.8219 20.2392 83.5734 25.5289 82.6806 29.041C81.669 28.4381 80.2556 27.8717 79.1518 27.392C79.94 25.0894 83.6167 18.2538 84.8161 15.9055Z"/><path fill="#D0995F" d="M109.272 43.2506C109.919 43.328 110.944 43.3575 111.141 44.1761C107.147 46.0002 103.266 48.0842 99.2457 49.7997L98.4761 45.6702C102.674 45.2137 105.22 44.4044 109.272 43.2506Z"/><path fill="#D0995F" d="M17.7459 61.2459C22.6406 61.0583 27.6484 60.2508 32.4568 59.3538C32.4662 60.5732 32.4438 62.0074 32.4936 63.2079C28.7188 62.7353 22.9316 62.2527 19.0914 62.2756C18.3205 62.2301 17.7332 62.1876 16.9662 62.073L16.9555 61.7777L17.7459 61.2459Z"/><path fill="#D0995F" d="M101.013 63.7038C100.962 62.3936 100.937 61.0826 100.937 59.7714C102.369 59.6103 111.54 61.2721 113.643 61.5188C111.954 63.6435 111.378 62.2809 109.203 63.0055C106.471 63.2114 103.741 63.4442 101.013 63.7038Z"/><path fill="#D0995F" d="M49.1895 16.7451C50.5516 19.6442 53.96 25.1579 54.7949 27.3923L50.8405 28.4417C50.4683 26.1666 48.9248 19.8803 47.7982 17.7795C48.0219 17.5276 48.8699 16.9684 49.1895 16.7451Z"/><path fill="#D0995F" d="M24.3082 42.876C28.1033 44.0168 31.2153 44.9149 35.1672 45.5712C34.6494 46.8149 34.1696 47.9203 33.7922 49.2209C30.288 47.446 26.9587 45.74 23.2827 44.3238C23.8313 43.7269 23.9256 43.5835 24.3082 42.876Z"/><path fill="#D0995F" d="M93.4724 20.4715L93.6747 20.8583C93.645 21.2746 89.2142 31.1753 88.6328 32.5513L88.1733 32.6376L87.1336 31.8898L84.9406 30.5031C88.1689 27.007 90.6917 24.3401 93.4724 20.4715Z"/><defs><linearGradient id="gradient_3" gradientUnits="userSpaceOnUse" x1="40.134598" y1="21.414642" x2="46.069504" y2="30.773012"><stop offset="0" stop-color="#D88C73"/><stop offset="1" stop-color="#EDB680"/></linearGradient></defs><path fill="url(#gradient_3)" d="M38.6568 20.1656C39.6037 20.3753 47.4604 29.3663 47.519 30.5365L46.9063 30.9484C46.2748 31.2707 45.3485 32.0439 44.7567 32.5072C43.3726 28.0424 40.5195 24.1996 38.6568 20.1656Z"/><path fill="#D0995F" d="M104.557 35.8396C104.936 35.8951 105.648 35.9612 105.946 36.137C104.517 37.158 97.7226 43.2306 96.8108 42.6872C92.2527 39.9707 102.4 36.8357 104.557 35.8396Z"/><path fill="#D0995F" d="M20.5386 51.7688C24.1089 51.745 28.4911 52.2586 32.3334 52.3034L32.7083 52.5083C32.8089 53.726 32.7756 54.4623 32.7073 55.6875C30.1288 55.1923 27.7349 54.4292 25.2546 53.5769C23.6075 53.0444 22.1379 52.427 20.5386 51.7688Z"/><path fill="#C3835C" d="M20.5386 51.7688C24.1089 51.745 28.4911 52.2586 32.3334 52.3034C29.9377 52.766 26.4544 51.9143 25.2546 53.5769C23.6075 53.0444 22.1379 52.427 20.5386 51.7688Z"/><path fill="#D0995F" d="M58.6994 15.5355C59.0711 17.6993 61.435 24.5172 61.0556 25.4159C60.0799 25.9059 58.8801 25.9793 57.7888 26.1111C57.7221 23.2898 57.9884 20.4961 57.9305 18.0247C58.0924 16.8735 57.9772 16.4754 58.6994 15.5355Z"/><path fill="#D0995F" d="M27.2198 34.7754C28.1829 34.8253 37.204 38.9982 38.1519 39.7193C38.2024 40.4111 37.5956 41.1537 37.1979 41.7702C36.8485 42.1677 37.0006 42.0547 36.4076 42.1512C35.7188 41.8376 27.5697 35.3616 27.2198 34.7754Z"/><path fill="#D0995F" d="M74.6348 17.4782C76.2666 18.8497 75.2674 19.6896 75.7624 21.5137C75.8451 22.6023 75.7523 25.0169 75.7423 26.2029C74.1968 26.0665 73.5482 26.2238 72.5462 25.2173C72.0366 23.7555 74.0093 19.567 74.6348 17.4782Z"/><path fill="#D0995F" d="M100.431 52.7552C102.674 52.7233 105.406 52.9058 107.661 53.0198C108.226 53.3432 108.952 53.8078 109.565 53.9627C106.959 54.4456 103.478 55.4659 100.854 56.1739C100.823 55.1249 100.589 53.814 100.431 52.7552Z"/><path fill="#C3835C" d="M23.2827 44.3238C21.5454 43.7326 14.7628 41.5791 14.1499 40.1703C15.3927 39.7352 22.5609 42.3326 24.3082 42.876C23.9256 43.5835 23.8313 43.7269 23.2827 44.3238Z"/><path fill="#C3835C" d="M47.7982 17.7795C47.0866 16.7246 44.2798 9.16864 44.6637 8.26939L44.5431 8.14026C45.7827 9.18746 48.3699 15.0314 49.1895 16.7451C48.8699 16.9684 48.0219 17.5276 47.7982 17.7795Z"/><path fill="#C3835C" d="M113.643 61.5188C116.363 61.8873 120.43 62.4776 122.944 63.5153C117.56 63.6219 114.232 63.1775 109.203 63.0055C111.378 62.2809 111.954 63.6435 113.643 61.5188Z"/><path fill="#C3835C" d="M84.8161 15.9055C85.2476 14.6244 87.7441 8.9377 88.671 8.25601C89.0428 9.72165 86.5351 15.1363 86.1911 16.9069C85.9647 16.4009 85.8773 16.095 85.4338 15.7709L84.8161 15.9055Z"/><path fill="#C3835C" d="M109.272 43.2506C112.891 41.8252 116.273 40.9247 120.019 39.9705C118.509 41.2354 113.181 43.5577 111.141 44.1761C110.944 43.3575 109.919 43.328 109.272 43.2506Z"/><path fill="#C3835C" d="M25.3252 19.9305C27.9438 21.4663 29.645 23.1629 31.8234 25.2818L30.8195 26.2998C29.7209 25.7027 26.0691 21.3977 25.3252 19.9305Z"/><path fill="#A9743D" d="M19.0914 62.2756C17.8662 62.4881 11.4933 63.2685 10.769 62.7658C11.8446 61.4555 16.0761 61.3205 17.7459 61.2459L16.9555 61.7777L16.9662 62.073C17.7332 62.1876 18.3205 62.2301 19.0914 62.2756Z"/><path fill="#A9743D" d="M57.3077 86.4019C59.3339 87.5213 60.6652 88.8389 61.7443 90.8854C59.8472 89.4793 57.8488 88.5189 55.7576 87.4427C56.3636 87.3511 56.8374 86.8224 57.3077 86.4019Z"/><path fill="#C3835C" d="M74.6348 17.4782C75.1349 15.3093 75.7079 13.1578 76.3529 11.0274C76.4238 13.5838 76.0477 18.7944 75.7624 21.5137C75.2674 19.6896 76.2666 18.8497 74.6348 17.4782Z"/><path fill="#C3835C" d="M57.2044 82.0218C58.6675 83.5299 59.69 84.6876 60.7701 86.5208C59.823 85.9254 56.5523 83.7171 55.9538 82.9329C56.163 82.5308 56.7862 82.2566 57.2044 82.0218Z"/><path fill="#C3835C" d="M57.9305 18.0247C57.8256 16.4524 57.3884 13.7568 57.6015 12.3827L57.8823 12.4305C58.4713 13.2753 58.551 14.4991 58.6994 15.5355C57.9772 16.4754 58.0924 16.8735 57.9305 18.0247Z"/><path fill="#DFAF6B" d="M107.661 53.0198C109.605 53.0133 111.696 52.9651 113.626 53.0057L109.565 53.9627C108.952 53.8078 108.226 53.3432 107.661 53.0198Z"/><path fill="#C3835C" d="M104.557 35.8396C106.137 35.0619 107.364 34.5274 109.095 34.0807C108.236 34.6893 106.859 35.7325 105.946 36.137C105.648 35.9612 104.936 35.8951 104.557 35.8396Z"/></svg>